<?xml version="1.0" standalone="no"?>
<!DOCTYPE svg PUBLIC "-//W3C//DTD SVG 20010904//EN"
 "http://www.w3.org/TR/2001/REC-SVG-20010904/DTD/svg10.dtd">
<svg version="1.0" xmlns="http://www.w3.org/2000/svg"
 width="124.000000pt" height="108.000000pt" viewBox="0 0 124.000000 108.000000"
 preserveAspectRatio="xMidYMid meet">

<g transform="translate(0.000000,108.000000) scale(0.100000,-0.100000)"
fill="#000000" stroke="none">
<path d="M567 925 c-32 -94 -34 -104 -17 -95 19 10 20 7 20 -96 l0 -106 -22
14 c-13 8 -54 32 -91 53 -66 39 -67 40 -46 56 20 15 16 17 -86 33 -58 10 -108
16 -110 14 -2 -1 27 -41 63 -88 56 -71 68 -81 70 -62 2 12 6 22 9 22 9 0 163
-95 163 -101 0 -3 -37 -26 -82 -52 -78 -43 -83 -45 -88 -26 -4 17 -18 5 -83
-71 -62 -71 -73 -90 -55 -86 13 3 57 10 98 16 103 15 110 18 87 35 -19 14 -27
7 141 107 l32 20 0 -107 c0 -102 -1 -106 -20 -100 -18 6 -17 -2 16 -97 20 -57
37 -104 39 -106 3 -3 75 178 75 190 0 3 -9 4 -20 1 -19 -5 -20 0 -20 102 0 98
2 107 18 100 27 -10 172 -96 172 -102 0 -3 -7 -11 -16 -17 -13 -10 4 -14 87
-24 56 -7 104 -10 106 -8 3 2 -24 39 -58 81 -55 67 -64 74 -71 56 -7 -19 -12
-18 -98 31 -49 29 -90 55 -90 59 0 8 167 109 180 109 5 0 10 -8 12 -17 2 -13
21 3 65 57 34 41 60 76 58 79 -4 4 -136 -15 -184 -26 -23 -6 -24 -6 -5 -21 10
-8 14 -16 9 -18 -6 -2 -49 -26 -95 -54 l-85 -49 -3 96 c-3 112 1 131 23 113 9
-7 17 -11 19 -9 5 5 -62 181 -72 191 -4 4 -24 -40 -45 -97z m67 -334 c23 -25
6 -61 -29 -61 -33 0 -49 30 -29 58 19 27 36 28 58 3z"/>
<path d="M370 980 l-25 -20 29 -52 c68 -125 108 -188 119 -188 7 1 22 6 34 13
23 13 23 13 -48 132 -39 66 -74 123 -78 127 -3 4 -17 -2 -31 -12z"/>
<path d="M741 868 l-70 -123 29 -14 c17 -8 32 -13 34 -10 10 10 136 233 136
240 0 9 -33 29 -49 29 -5 0 -41 -55 -80 -122z"/>
<path d="M130 565 l0 -35 145 0 145 0 0 35 0 35 -145 0 -145 0 0 -35z"/>
<path d="M792 568 l3 -33 145 0 145 0 3 33 3 32 -151 0 -151 0 3 -32z"/>
<path d="M442 353 c-80 -139 -104 -184 -101 -187 17 -15 53 -26 59 -19 9 10
140 233 140 239 0 2 -13 10 -30 19 l-29 15 -39 -67z"/>
<path d="M698 402 l-26 -17 70 -120 c38 -66 70 -121 72 -123 8 -7 57 23 54 33
-4 18 -132 244 -138 245 -3 0 -17 -8 -32 -18z"/>
</g>
</svg>
